<svg xmlns="http://www.w3.org/2000/svg" viewBox="46.02 10.56 385.61 205.21">   <g>     <path id="Path_299" data-name="Path 299" d="M 402.08 172.828 C 401.65 173.754 401.222 174.668 400.795 175.569 C 400.128 176.969 399.47 178.341 398.821 179.687 C 398.532 180.283 398.243 180.868 397.962 181.453 C 394.777 187.96 391.803 193.715 389.278 198.448 C 384.61 207.183 375.55 212.677 365.647 212.78 L 309.487 213.391 L 308.894 213.391 L 304.08 213.442 L 299.962 213.487 L 287.333 213.624 L 286.822 213.624 L 280.394 213.694 L 280.197 213.694 L 240.572 214.124 L 205.202 214.494 L 201.088 214.539 L 175.535 214.816 L 175.505 214.816 L 158.933 214.994 L 158.755 214.994 L 106.354 215.561 L 90.678 215.731 C 89.343 215.746 88.008 215.68 86.682 215.531 C 86.23 215.479 85.778 215.42 85.33 215.35 C 78.019 214.221 71.315 210.622 66.336 205.151 C 59.592 197.733 54.685 189.078 51.39 179.687 C 50.913 178.332 50.469 176.959 50.056 175.569 C 38.647 136.999 52.556 87.238 77.59 53.938 C 78.64 52.546 79.706 51.188 80.79 49.864 L 80.816 49.835 C 88.515 40.384 97.147 32.489 106.343 26.874 C 122.637 16.909 140.691 14.102 158.448 22.468 C 173.472 29.548 187.5 32.877 201.099 33.781 C 202.473 33.87 203.847 33.937 205.213 33.977 C 236.406 34.959 265.64 23.719 299.969 16.464 C 301.336 16.176 302.706 15.89 304.087 15.62 C 328.577 10.747 355.744 8.177 388.052 13.58 C 391.408 14.128 394.72 14.92 397.962 15.95 C 399.386 16.409 400.759 16.903 402.08 17.431 C 417.5 23.704 425.911 35.296 429.484 49.82 C 429.822 51.168 430.115 52.539 430.362 53.934 C 436.698 88.871 418.141 138.429 402.08 172.828 Z" fill="#f2f2f2" style="stroke-width: 0.37;"/>     <path id="Path_300" data-name="Path 300" d="M 230.077 175.569 C 229.928 176.954 229.696 178.329 229.384 179.687 L 264.084 179.687 L 264.084 175.569 L 230.077 175.569 Z M 201.099 198.829 L 205.213 198.796 L 205.213 188.623 C 203.802 188.56 202.428 188.497 201.099 188.43 L 201.099 198.829 Z M 114.842 175.569 L 114.842 179.687 L 188.352 179.687 L 188.352 175.569 L 114.842 175.569 Z M 429.503 49.835 L 402.098 49.835 L 402.098 17.435 C 400.778 16.899 399.405 16.405 397.98 15.953 L 397.98 49.835 L 304.087 49.835 L 304.087 15.609 C 302.706 15.879 301.336 16.165 299.969 16.453 L 299.969 49.835 L 205.213 49.835 L 205.213 33.966 C 203.847 33.926 202.473 33.859 201.099 33.77 L 201.099 49.835 L 106.343 49.835 L 106.343 26.874 C 97.147 32.489 88.515 40.384 80.816 49.835 L 80.79 49.835 L 80.79 49.864 C 79.704 51.198 78.637 52.556 77.59 53.938 L 80.79 53.938 L 80.79 175.569 L 50.053 175.569 C 50.462 176.959 50.907 178.332 51.386 179.687 L 80.786 179.687 L 80.786 214.357 C 82.265 214.81 83.775 215.155 85.304 215.39 C 85.752 215.461 86.204 215.52 86.656 215.572 C 87.983 215.72 89.317 215.787 90.652 215.772 L 106.328 215.601 L 106.328 179.68 L 201.099 179.68 L 201.099 214.568 L 205.213 214.524 L 205.213 179.687 L 299.969 179.687 L 299.969 213.52 L 304.087 213.476 L 304.087 179.687 L 397.962 179.687 L 397.962 181.453 C 398.243 180.868 398.532 180.283 398.821 179.687 C 399.47 178.341 400.128 176.969 400.795 175.569 C 401.222 174.67 401.65 173.757 402.08 172.828 L 402.08 53.953 L 430.38 53.953 C 430.131 52.548 429.838 51.175 429.503 49.835 Z M 106.343 175.569 L 106.343 53.938 L 201.099 53.938 L 201.099 175.569 L 106.343 175.569 Z M 205.22 175.569 L 205.22 53.938 L 299.969 53.938 L 299.969 175.569 L 205.22 175.569 Z M 397.969 175.569 L 304.087 175.569 L 304.087 53.938 L 397.962 53.938 L 397.969 175.569 Z" opacity="0.1" style="stroke-width: 0.37;"/>     <path id="Path_301" data-name="Path 301" d="M 365.643 208.173 L 365.643 212.987 L 309.383 213.505 L 308.783 213.517 L 287.4 213.713 L 286.889 213.72 L 280.39 213.776 L 280.197 213.776 L 240.579 214.142 L 175.546 214.746 L 175.49 214.746 L 158.955 214.902 L 158.777 214.905 L 85.304 215.579 L 85.304 210.024 L 102.58 199.655 L 137.243 199.366 L 137.984 199.363 L 138.228 199.359 L 138.969 199.348 L 155.611 199.211 L 156.356 199.207 L 156.593 199.203 L 157.333 199.2 L 162.67 199.155 L 162.81 199.151 L 175.976 199.04 L 176.083 199.04 L 278.812 198.174 L 281.327 198.155 L 281.579 198.155 L 283.497 198.137 L 297.44 198.022 L 298.18 198.011 L 298.866 198.003 L 299.221 198.003 L 303.558 197.97 L 304.417 197.959 L 305.568 197.952 L 309.179 197.918 L 314.908 197.87 L 315.649 197.863 L 316.938 197.855 L 317.178 197.855 L 344.846 197.618 L 365.643 208.173 Z" fill="#65617d" style="stroke-width: 0.37;"/>     <path id="Path_302" data-name="Path 302" d="M 365.643 208.173 L 365.643 212.987 L 309.383 213.505 L 308.783 213.517 L 287.4 213.713 L 286.889 213.72 L 280.39 213.776 L 280.197 213.776 L 240.579 214.142 L 175.546 214.746 L 175.49 214.746 L 158.955 214.902 L 158.777 214.905 L 85.304 215.579 L 85.304 210.024 L 102.58 199.655 L 137.243 199.366 L 137.984 199.363 L 138.228 199.359 L 138.969 199.348 L 155.611 199.211 L 156.356 199.207 L 156.593 199.203 L 157.333 199.2 L 162.67 199.155 L 162.81 199.151 L 175.976 199.04 L 176.083 199.04 L 278.812 198.174 L 281.327 198.155 L 281.579 198.155 L 283.497 198.137 L 297.44 198.022 L 298.18 198.011 L 298.866 198.003 L 299.221 198.003 L 303.558 197.97 L 304.417 197.959 L 305.568 197.952 L 309.179 197.918 L 314.908 197.87 L 315.649 197.863 L 316.938 197.855 L 317.178 197.855 L 344.846 197.618 L 365.643 208.173 Z" opacity="0.2" style="stroke-width: 0.37;"/>     <path id="Path_303" data-name="Path 303" d="M 155.67 189.66 L 155.67 198.729 C 155.671 199.606 155.166 200.405 154.374 200.781 C 154.085 200.921 153.769 200.997 153.448 201.003 L 140.524 201.277 C 140.179 201.285 139.836 201.213 139.524 201.066 C 138.718 200.696 138.201 199.89 138.202 199.003 L 138.202 189.66 L 155.67 189.66 Z" fill="#3f3d56" style="stroke-width: 0.37;"/>     <path id="Path_304" data-name="Path 304" d="M 155.67 189.66 L 155.67 198.729 C 155.671 199.606 155.166 200.405 154.374 200.781 C 154.085 200.921 153.769 200.997 153.448 201.003 L 140.524 201.277 C 140.179 201.285 139.836 201.213 139.524 201.066 C 138.718 200.696 138.201 199.89 138.202 199.003 L 138.202 189.66 L 155.67 189.66 Z" opacity="0.1" style="stroke-width: 0.37;"/>     <path id="Path_305" data-name="Path 305" d="M 156.411 189.66 L 156.411 198.729 C 156.411 199.606 155.907 200.405 155.115 200.781 C 154.826 200.921 154.51 200.997 154.189 201.003 L 141.265 201.277 C 140.919 201.285 140.577 201.213 140.265 201.066 C 139.458 200.696 138.942 199.89 138.943 199.003 L 138.943 189.66 L 156.411 189.66 Z" fill="#3f3d56" style="stroke-width: 0.37;"/>     <rect id="Rectangle_137" data-name="Rectangle 137" width="17.468" height="11.665" fill="#3f3d56" x="298.18" y="189.656" style="stroke-width: 0.37;"/>     <rect id="Rectangle_138" data-name="Rectangle 138" width="17.468" height="11.665" opacity="0.1" x="298.18" y="189.656" style="stroke-width: 0.37;"/>     <rect id="Rectangle_139" data-name="Rectangle 139" width="17.468" height="11.665" fill="#3f3d56" x="297.44" y="189.656" style="stroke-width: 0.37;"/>     <path id="Path_306" data-name="Path 306" d="M 156.407 189.656 L 156.407 191.497 L 138.939 191.963 L 138.939 189.656 L 156.407 189.656 Z" opacity="0.1" style="stroke-width: 0.37;"/>     <path id="Path_307" data-name="Path 307" d="M 187.241 126.223 L 187.241 188.512 C 187.232 189.302 186.604 189.945 185.815 189.975 L 114.842 191.863 L 114.823 191.863 C 114.019 191.853 113.37 191.204 113.36 190.401 L 113.36 126.223 C 113.37 125.419 114.019 124.77 114.823 124.76 L 185.778 124.76 C 186.582 124.77 187.231 125.419 187.241 126.223 L 187.241 126.223 Z" fill="#65617d" style="stroke-width: 0.37;"/>     <path id="Path_308" data-name="Path 308" d="M 114.842 124.76 L 114.842 191.863 L 114.823 191.863 C 114.019 191.853 113.37 191.204 113.36 190.401 L 113.36 126.223 C 113.37 125.419 114.019 124.77 114.823 124.76 L 114.842 124.76 Z" opacity="0.1" style="stroke-width: 0.37;"/>     <path id="Path_309" data-name="Path 309" d="M 118.078 128.737 L 183.812 128.737 L 183.812 183.638 L 118.078 185.12 L 118.078 128.737 Z" fill="#39374d" style="stroke-width: 0.37;"/>     <path id="Path_310" data-name="Path 310" d="M 314.908 189.656 L 314.908 192.03 L 297.44 191.563 L 297.44 189.656 L 314.908 189.656 Z" opacity="0.1" style="stroke-width: 0.37;"/>     <path id="Path_311" data-name="Path 311" d="M 337.965 126.223 L 337.965 190.401 C 337.955 191.211 337.294 191.863 336.484 191.863 L 265.495 189.975 C 264.706 189.945 264.079 189.302 264.069 188.512 L 264.069 126.223 C 264.079 125.419 264.728 124.77 265.532 124.76 L 336.487 124.76 C 337.297 124.762 337.955 125.413 337.965 126.223 Z" fill="#65617d" style="stroke-width: 0.37;"/>     <path id="Path_312" data-name="Path 312" d="M 337.965 126.223 L 337.965 190.401 C 337.955 191.211 337.294 191.863 336.484 191.863 L 336.484 124.76 C 337.294 124.76 337.955 125.412 337.965 126.223 Z" opacity="0.1" style="stroke-width: 0.37;"/>     <path id="Path_313" data-name="Path 313" d="M 333.239 128.737 L 267.506 128.737 L 267.506 183.638 L 333.239 185.12 L 333.239 128.737 Z" fill="#39374d" style="stroke-width: 0.37;"/>     <path id="Path_314" data-name="Path 314" d="M 262.233 126.223 L 262.233 188.512 C 262.223 189.302 261.596 189.945 260.807 189.975 L 189.833 191.863 C 189.022 191.863 188.362 191.211 188.352 190.401 L 188.352 126.223 C 188.362 125.419 189.011 124.77 189.815 124.76 L 260.77 124.76 C 261.573 124.77 262.223 125.419 262.233 126.223 Z" fill="#65617d" style="stroke-width: 0.37;"/>     <path id="Path_315" data-name="Path 315" d="M 193.07 128.737 L 258.803 128.737 L 258.803 183.638 L 193.07 185.12 L 193.07 128.737 Z" fill="#4267b2" style="stroke-width: 0.37;"/>     <path id="Path_316" data-name="Path 316" d="M 365.643 208.173 L 365.643 212.987 L 309.383 213.505 L 308.783 213.517 L 287.4 213.713 L 286.889 213.72 L 280.39 213.776 L 280.197 213.776 L 240.579 214.142 L 175.546 214.746 L 175.49 214.746 L 158.955 214.902 L 158.777 214.905 L 85.304 215.579 L 85.304 210.024 L 160.3 209.532 L 160.477 209.532 L 175.657 209.428 L 175.727 209.428 L 280.56 208.736 L 280.668 208.736 L 280.731 208.732 L 280.905 208.732 L 282.678 208.721 L 283.219 208.721 L 310.805 208.536 L 312.434 208.528 L 312.797 208.524 L 365.643 208.173 Z" opacity="0.1" style="stroke-width: 0.37;"/>     <circle id="Ellipse_111" data-name="Ellipse 111" cx="226.463" cy="120.96" r="19.009" fill="#fbbebe" style="stroke-width: 0.37;"/>     <path id="Path_317" data-name="Path 317" d="M 245.475 150.22 C 245.475 150.22 208.627 154.664 212.146 150.22 C 213.42 148.613 213.771 143.85 213.701 138.425 C 213.679 136.777 213.62 135.07 213.534 133.37 C 213.127 125.223 212.146 117.261 212.146 117.261 C 212.146 117.261 244.364 102.077 240.661 114.113 C 239.18 118.975 239.665 125.804 240.791 132.214 C 241.12 134.085 241.502 135.918 241.902 137.658 C 242.878 141.904 244.07 146.096 245.475 150.22 Z" fill="#fbbebe" style="stroke-width: 0.37;"/>     <path id="Path_318" data-name="Path 318" d="M 233.451 148.713 C 237.713 147.924 242.227 146.491 246.238 148.142 C 247.294 148.576 248.264 149.209 249.345 149.572 C 250.426 149.935 251.612 150.024 252.737 150.279 C 256.692 151.175 259.9 154.186 261.959 157.686 C 264.018 161.185 265.084 165.144 266.128 169.062 L 268.684 178.628 C 270.906 186.942 273.128 195.326 273.642 203.921 C 242.708 205.692 211.702 205.869 180.749 204.451 C 182.764 200.622 184.823 196.559 184.652 192.23 C 184.482 187.901 181.99 183.631 182.89 179.365 C 183.464 176.647 185.323 174.406 186.46 171.877 C 189.7 164.648 187.178 154.919 192.874 149.416 C 195.436 146.942 199.169 146.006 202.736 146.124 C 207.283 146.276 211.938 147.694 216.438 148.387 C 222.2 149.261 227.644 149.779 233.451 148.713 Z" fill="#ff6584" style="stroke-width: 0.37;"/>     <path id="Path_319" data-name="Path 319" d="M 281.927 189.882 L 281.89 190.412 L 281.89 190.449 L 281.827 191.3 L 281.334 198.155 L 280.738 206.414 L 280.568 208.739 L 280.197 213.716 L 280.197 213.779 L 240.572 214.15 L 175.546 214.853 L 175.546 215.164 L 175.494 215.164 L 175.494 214.75 L 175.661 209.432 L 175.979 199.04 L 176.253 190.23 L 176.279 189.353 C 176.348 187.116 178.279 185.396 180.508 185.586 C 182.256 185.734 184.526 185.916 187.241 186.108 L 188.352 186.19 C 204.028 187.279 232.999 188.686 262.233 186.931 C 262.847 186.897 263.466 186.86 264.084 186.816 C 268.617 186.531 273.146 186.164 277.631 185.705 C 280.045 185.452 282.101 187.442 281.927 189.864 L 281.927 189.882 Z" opacity="0.1" style="stroke-width: 0.37;"/>     <path id="Path_320" data-name="Path 320" d="M 175.535 215.164 L 175.535 214.853 L 240.572 214.146 L 280.197 213.776 L 280.308 213.776 L 280.308 213.713 L 280.679 208.736 L 280.838 206.514 L 281.445 198.14 L 281.923 191.512 L 281.923 191.349 C 281.945 191.043 281.931 190.736 281.882 190.434 C 281.884 190.422 281.884 190.409 281.882 190.397 C 281.78 189.772 281.526 189.182 281.142 188.679 C 280.313 187.615 278.994 187.055 277.653 187.197 C 273.168 187.656 268.639 188.023 264.106 188.308 C 263.488 188.353 262.87 188.39 262.255 188.423 C 233.021 190.16 204.05 188.753 188.374 187.682 L 187.263 187.601 C 184.549 187.408 182.279 187.231 180.531 187.079 C 178.539 186.911 176.742 188.274 176.368 190.238 C 176.331 190.438 176.308 190.641 176.301 190.845 L 176.05 199.051 L 175.705 209.447 L 175.542 214.765 L 175.542 215.179 L 175.535 215.164 Z" fill="#3f3d56" style="stroke-width: 0.37;"/>     <path id="Path_321" data-name="Path 321" d="M 282.038 192.478 L 281.582 198.155 L 280.905 206.617 L 280.734 208.736 L 280.364 213.479 L 280.342 213.716 L 280.342 213.779 L 280.286 214.328 L 280.327 213.779 L 280.219 213.779 L 240.594 214.15 L 175.546 214.853 L 175.546 214.75 L 175.727 209.432 L 176.098 199.04 L 176.335 192.134 C 176.358 191.335 176.785 190.604 177.468 190.189 C 177.887 189.932 178.378 189.816 178.868 189.856 C 179.646 189.919 180.601 189.993 181.716 190.075 C 183.527 190.208 185.76 190.364 188.359 190.526 C 193.174 190.83 199.214 191.156 206.135 191.423 C 225.392 192.163 251.389 192.411 276.083 190.249 C 277.194 190.152 278.342 190.045 279.464 189.938 C 279.908 189.893 280.356 189.978 280.753 190.182 C 280.865 190.238 280.972 190.305 281.071 190.382 C 281.394 190.616 281.649 190.93 281.812 191.293 C 281.85 191.365 281.881 191.441 281.904 191.519 C 282.016 191.826 282.061 192.153 282.038 192.478 Z" opacity="0.1" style="stroke-width: 0.37;"/>     <path id="Path_322" data-name="Path 322" d="M 156.411 197.548 L 156.411 198.729 C 156.411 199.606 155.907 200.405 155.115 200.781 L 140.265 201.066 C 139.458 200.696 138.942 199.89 138.943 199.003 L 138.943 197.892 L 156.411 197.548 Z" opacity="0.1" style="stroke-width: 0.37;"/>     <path id="Path_323" data-name="Path 323" d="M 156.593 201.477 L 137.243 201.847 L 137.243 198.637 L 156.593 198.266 L 156.593 201.477 Z" fill="#3f3d56" style="stroke-width: 0.37;"/>     <path id="Path_324" data-name="Path 324" d="M 156.593 201.477 L 137.243 201.847 L 137.243 198.637 L 156.593 198.266 L 156.593 201.477 Z" opacity="0.1" style="stroke-width: 0.37;"/>     <path id="Path_325" data-name="Path 325" d="M 157.333 201.477 L 137.984 201.847 L 137.984 198.637 L 157.333 198.266 L 157.333 201.477 Z" fill="#3f3d56" style="stroke-width: 0.37;"/>     <path id="Path_326" data-name="Path 326" d="M 297.551 198.289 L 297.551 199.47 C 297.55 200.347 298.055 201.145 298.847 201.522 L 313.697 201.807 C 314.504 201.437 315.02 200.631 315.019 199.744 L 315.019 198.633 L 297.551 198.289 Z" opacity="0.1" style="stroke-width: 0.37;"/>     <path id="Path_327" data-name="Path 327" d="M 297.366 202.218 L 316.715 202.588 L 316.715 199.377 L 297.366 199.007 L 297.366 202.218 Z" opacity="0.1" style="stroke-width: 0.37;"/>     <path id="Path_328" data-name="Path 328" d="M 296.625 202.218 L 315.975 202.588 L 315.975 199.377 L 296.625 199.007 L 296.625 202.218 Z" fill="#3f3d56" style="stroke-width: 0.37;"/>     <path id="Path_329" data-name="Path 329" d="M 214.438 126.785 C 214.468 129.378 213.268 131.822 212.249 134.218 C 208.541 142.946 206.935 152.423 207.561 161.885 C 207.831 165.959 208.516 170.032 207.831 174.069 C 207.146 178.106 204.709 182.131 200.795 183.29 C 207.287 187.16 216.075 186.753 222.185 182.305 C 225.44 179.935 227.866 176.628 230.24 173.377 C 229.958 179.217 228.267 184.903 225.311 189.949 C 236.116 188.992 246.009 183.498 252.534 174.832 C 254.13 172.68 255.519 170.318 256.133 167.711 C 257.278 162.896 255.681 157.893 254.463 153.083 C 253.445 149.061 252.682 144.979 252.178 140.862 C 252.019 139.543 251.889 138.188 252.215 136.899 C 252.586 135.392 253.574 134.118 254.304 132.744 C 256.378 128.841 256.426 124.115 255.363 119.827 C 254.3 115.539 252.219 111.583 250.156 107.677 C 248.504 104.544 246.712 101.266 243.69 99.426 C 241.802 98.278 239.617 97.8 237.439 97.337 L 228.044 95.326 C 225.988 94.885 223.874 94.445 221.796 94.767 C 218.289 95.315 215.819 97.848 213.649 100.448 C 211.949 102.47 207.794 106.266 207.502 108.913 C 207.235 111.354 209.39 115.442 209.757 118.016 C 210.238 121.349 210.579 120.238 212.46 122.282 C 213.649 123.549 214.416 125.012 214.438 126.785 Z" fill="#3f3d56" style="stroke-width: 0.37;"/>     <path id="Path_331" data-name="Path 331" fill="#61dafb" style="stroke-width: 5.61;"/>     <path id="Path_332" data-name="Path 332" fill="#61dafb" style="stroke-width: 1.874;"/>     <g transform="matrix(0.566842, 0, 0, 0.566842, 42.481763, 41.652009)" style="">       <circle cx="189.552" cy="200.765" r="35.725" style="stroke-width: 1.139; fill: rgb(255, 255, 255); paint-order: fill; stroke: rgb(36, 37, 38);"/>       <path style="stroke-width: 1.242; fill: rgb(36, 37, 38);" d="M 182.095 168.809 L 164.694 225.625 L 179.609 225.625 L 187.067 205.739 L 192.039 205.739 L 199.496 225.625 L 214.412 225.625 L 197.011 168.809 L 182.095 168.809 Z"/>       <path d="M 189.149 173.153 C 173.42 192.404 191.579 185.023 188.697 205.103 C 201.111 188.543 196.613 183.972 189.149 173.153" style="stroke-width: 1.242; fill: rgb(255, 255, 255);"/>     </g>     <g transform="matrix(0.787659, 0, 0, 0.787659, 1.727901, -117.781002)" style="">       <g transform="matrix(0.728161, 0, 0, 0.728161, 168.619802, 289.404428)" style="">         <g id="group-1" featurekey="odWo6G-0" transform="matrix(0.780012, 0, 0, 0.780012, 247.264297, 41.335388)" fill="#111111" style="">           <g transform="matrix(1, 0, 0, 1, 0.571293, 0)">             <path xmlns="http://www.w3.org/2000/svg" d="M 50 93.166 C 26.198 93.166 6.834 73.802 6.834 50 C 6.834 26.198 26.198 6.834 50 6.834 C 73.802 6.834 93.166 26.198 93.166 50 C 93.166 73.802 73.802 93.166 50 93.166 Z M 50 8.834 C 27.301 8.834 8.834 27.301 8.834 50 C 8.834 72.699 27.301 91.166 50 91.166 C 72.699 91.166 91.166 72.699 91.166 50 C 91.166 27.301 72.699 8.834 50 8.834 Z" style="paint-order: stroke markers; fill-rule: evenodd; fill: rgb(255, 255, 255);"/>             <path xmlns="http://www.w3.org/2000/svg" d="M 42.054 45.22 L 41.947 44.478 C 60.145 41.855 70.192 31.453 73.667 27.103 L 74.253 27.571 C 70.722 31.99 60.517 42.559 42.054 45.22 Z" style="fill-opacity: 0.68; paint-order: stroke markers; fill-rule: evenodd; fill: rgb(255, 255, 255);"/>             <circle xmlns="http://www.w3.org/2000/svg" cx="44.793" cy="46.114" r="2.82" style="fill-opacity: 0.68; paint-order: stroke markers; fill-rule: evenodd; fill: rgb(255, 255, 255);"/>             <path xmlns="http://www.w3.org/2000/svg" d="M 36.344 79.667 C 32.86 75.28 27.332 66.128 29.449 54.115 L 30.187 54.246 C 28.121 65.969 33.525 74.912 36.93 79.2 L 36.344 79.667 Z" style="fill-opacity: 0.68; paint-order: stroke markers; fill-rule: evenodd; fill: rgb(255, 255, 255);"/>             <path xmlns="http://www.w3.org/2000/svg" d="M 78.553 58.284 L 77.803 58.263 C 78.065 48.888 74.481 39.915 67.71 32.998 C 60.66 25.794 50.819 21.706 40.684 21.765 L 40.679 21.015 C 51 20.975 61.055 25.125 68.246 32.473 C 75.16 39.537 78.82 48.704 78.553 58.284 Z" style="fill-opacity: 0.68; paint-order: stroke markers; fill-rule: evenodd; fill: rgb(255, 255, 255);"/>             <path xmlns="http://www.w3.org/2000/svg" d="M 55.399 79.251 C 32.777 78.135 17.44 63.323 10.629 49.833 C 5.622 39.915 4.839 30.251 8.586 24.611 C 11.004 20.971 15.161 19.25 20.595 19.628 L 20.543 20.376 C 15.379 20.015 11.47 21.625 9.21 25.026 C 5.612 30.442 6.412 39.817 11.298 49.495 C 18.013 62.797 33.135 77.401 55.436 78.501 L 55.399 79.251 Z" style="fill-opacity: 0.68; paint-order: stroke markers; fill-rule: evenodd; fill: rgb(255, 255, 255);"/>             <path xmlns="http://www.w3.org/2000/svg" d="M 23.574 83.267 C 13.12 81.553 6.04 74.011 5.536 64.052 C 5.052 54.472 10.949 43.083 25.215 39.234 L 25.41 39.958 C 11.548 43.698 5.816 54.734 6.286 64.014 C 6.672 71.648 11.448 80.519 23.696 82.527 L 23.574 83.267 Z" style="fill-opacity: 0.68; paint-order: stroke markers; fill-rule: evenodd; fill: rgb(255, 255, 255);"/>             <circle xmlns="http://www.w3.org/2000/svg" cx="25.179" cy="39.64" r="2.82" style="fill-opacity: 0.68; paint-order: stroke markers; fill-rule: evenodd; fill: rgb(255, 255, 255);"/>             <path xmlns="http://www.w3.org/2000/svg" d="M 71.286 94.365 C 70.961 94.365 70.632 94.35 70.298 94.319 C 63.962 93.73 58.223 87.877 54.944 78.661 L 55.651 78.409 C 58.829 87.343 64.33 93.011 70.367 93.572 C 73.617 93.881 76.494 92.571 77.888 90.175 C 79.331 87.696 78.914 84.489 76.743 81.379 L 77.358 80.949 C 79.703 84.309 80.131 87.809 78.536 90.552 C 77.138 92.954 74.416 94.365 71.286 94.365 Z" style="fill-opacity: 0.68; paint-order: stroke markers; fill-rule: evenodd; fill: rgb(255, 255, 255);"/>             <path xmlns="http://www.w3.org/2000/svg" d="M 73.706 12.936 C 73.101 12.936 72.487 12.951 71.865 12.982 C 60.053 13.562 49.351 19.328 43.238 28.409 L 44.555 28.657 C 50.481 19.854 60.737 14.27 71.993 13.717 C 78.052 13.413 83.416 14.703 86.017 17.064 C 88.705 19.507 87.93 22.666 83.881 25.73 L 85.026 26.154 C 89.399 22.843 90.198 19.395 87.224 16.693 C 84.619 14.326 79.543 12.936 73.706 12.936 Z" style="fill-opacity: 0.68; paint-order: stroke markers; fill-rule: evenodd; fill: rgb(255, 255, 255);" transform="matrix(0.999784, -0.020769, 0.020769, 0.999784, -0.417661, 1.377655)"/>           </g>           <circle xmlns="http://www.w3.org/2000/svg" cx="76.514" cy="28.767" r="0" style="fill-opacity: 0.68; paint-order: stroke markers; fill: rgb(255, 255, 255);"/>           <circle xmlns="http://www.w3.org/2000/svg" cx="27.345" cy="55.653" r="0" style="fill-opacity: 0.68; paint-order: stroke markers; fill: rgb(255, 255, 255);"/>           <circle xmlns="http://www.w3.org/2000/svg" cx="34.08" cy="80.649" r="0" style="fill-opacity: 0.68; paint-order: stroke markers; fill: rgb(255, 255, 255);"/>           <circle xmlns="http://www.w3.org/2000/svg" cx="78.128" cy="58.131" r="0" style="fill-opacity: 0.68; paint-order: stroke markers; fill: rgb(255, 255, 255);"/>           <circle xmlns="http://www.w3.org/2000/svg" cx="40.819" cy="21.442" r="0" style="fill-opacity: 0.68; paint-order: stroke markers; fill: rgb(255, 255, 255);"/>           <circle xmlns="http://www.w3.org/2000/svg" cx="55.277" cy="78.637" r="0" style="fill-opacity: 0.68; paint-order: stroke markers; fill: rgb(255, 255, 255);"/>           <circle xmlns="http://www.w3.org/2000/svg" cx="62.771" cy="18.677" r="0" style="fill-opacity: 0.68; paint-order: stroke markers; fill: rgb(255, 255, 255);"/>         </g>         <g id="group-2" featurekey="nameFeature-0" transform="matrix(1.470365, 0, 0, 1.470365, 259.723083, 40.126091)" fill="#6789ba" style="">           <path d="M 16.171 40.16 L 13.331 22.28 L 12.451 34.04 L 8.731 33.92 L 4.971 23.84 L 5.331 39.92 L 0.571 39.56 L 1.811 17.4 L 6.131 16.16 L 9.411 24.2 L 11.211 16.04 L 16.731 15.48 L 20.371 39 L 16.171 40.16 Z M 29.086 39.92 C 26.326 39.68 21.686 36.52 21.686 36.52 L 23.286 32.08 C 23.286 32.08 27.006 35.4 29.166 35.2 C 31.326 35 32.526 33.16 32.086 30.96 C 31.166 26.28 23.566 26 23.566 21.64 C 23.566 17.28 26.646 14.4 29.086 14.28 C 32.966 14.08 35.006 16.04 35.006 16.04 C 34.806 16.32 33.686 18.68 33.686 18.68 C 33.686 18.68 29.606 17.2 28.926 20.68 C 28.006 25.32 37.166 24.88 37.326 31.12 C 37.526 38.2 31.806 40.16 29.086 39.92 L 29.086 39.92 Z" style="fill: rgb(255, 255, 255);"/>         </g>       </g>     </g>   </g> </svg>