<svg xmlns="http://www.w3.org/2000/svg" viewBox="29.64 13.19 423.19 248.49">   <g transform="matrix(1, 0, 0, 1, -31.234969, -13.455085)">     <g transform="matrix(1, 0, 0, 1, 27.524237, -88.167033)">       <circle cx="153.654" cy="235.12" r="120.307" fill="#f2f2f2" style=""/>       <ellipse cx="242.854" cy="352.992" rx="192.642" ry="10.307" fill="#3f3d56" style=""/>       <ellipse cx="242.479" cy="349.806" rx="172.404" ry="8.245" opacity="0.2" style=""/>       <rect x="82.444" y="171.969" width="314.824" height="18.74" fill="#3f3d56" style=""/>       <path d="M 82.444 342.997 C 82.444 347.481 86.08 351.118 90.566 351.118 L 389.147 351.118 C 393.631 351.118 397.268 347.481 397.268 342.997 L 397.268 181.338 L 82.444 181.338 L 82.444 342.997 Z" fill="#3f3d56" style=""/>       <path d="M 389.147 158.851 L 90.566 158.851 C 86.08 158.851 82.444 162.487 82.444 166.972 L 82.444 181.338 L 397.268 181.338 L 397.268 166.972 C 397.268 162.487 393.631 158.851 389.147 158.851 Z" fill="#3f3d56" style=""/>       <path d="M 389.147 158.851 L 90.566 158.851 C 86.08 158.851 82.444 162.487 82.444 166.972 L 82.444 181.338 L 397.268 181.338 L 397.268 166.972 C 397.268 162.487 393.631 158.851 389.147 158.851 Z" opacity="0.2" style=""/>       <circle cx="101.184" cy="170.095" r="4.872" fill="#3f3d56" style=""/>       <circle cx="114.676" cy="170.095" r="4.872" fill="#3f3d56" style=""/>       <circle cx="128.168" cy="170.095" r="4.872" fill="#3f3d56" style=""/>       <rect x="96.311" y="194.831" width="126.305" height="144.669" rx="5.335" fill="#606060" style=""/>       <rect x="259.345" y="216.943" width="106.44" height="8.245" rx="5.476" style="fill: rgb(14, 89, 169);"/>       <rect x="234.609" y="246.926" width="155.913" height="5.622" rx="5.476" style="fill: rgb(14, 89, 169);"/>       <rect x="234.609" y="263.417" width="155.913" height="5.622" rx="5.476" style="fill: rgb(14, 89, 169);"/>       <rect x="234.609" y="279.908" width="155.913" height="5.622" rx="5.476" style="fill: rgb(14, 89, 169);"/>       <rect x="234.609" y="296.398" width="155.913" height="5.622" rx="5.476" style="fill: rgb(14, 89, 169);"/>       <rect x="357.54" y="321.884" width="32.982" height="9.745" rx="7.028" style="fill: rgb(14, 89, 169);"/>       <path d="M 428.04 304.5 C 429.037 302.76 429.552 300.784 429.532 298.778 C 429.532 293.608 426.33 289.416 422.38 289.416 C 418.43 289.416 415.228 293.608 415.228 298.778 C 415.208 300.784 415.724 302.76 416.721 304.5 C 414.73 308.055 414.73 312.388 416.721 315.943 C 414.73 319.498 414.73 323.831 416.721 327.386 C 414.73 330.942 414.73 335.275 416.721 338.83 C 415.724 340.57 415.208 342.545 415.228 344.551 C 415.228 349.722 418.43 353.913 422.38 353.913 C 426.33 353.913 429.532 349.722 429.532 344.551 C 429.552 342.545 429.037 340.57 428.04 338.83 C 430.029 335.275 430.029 330.942 428.04 327.386 C 430.029 323.831 430.029 319.498 428.04 315.943 C 430.029 312.388 430.029 308.055 428.04 304.5 Z" fill="#3f3d56" style=""/>       <ellipse cx="422.38" cy="287.336" rx="7.152" ry="9.363" fill="#3f3d56" style=""/>       <ellipse cx="422.38" cy="275.893" rx="7.152" ry="9.363" fill="#3f3d56" style=""/>       <path d="M 449.153 197.583 C 450.13 196.34 451.021 195.029 451.817 193.662 L 433.024 190.576 L 453.349 190.727 C 457.289 182.154 457.526 172.336 454.003 163.583 L 426.736 177.728 L 451.883 159.243 C 438.673 136.416 405.706 136.449 392.542 159.303 C 385.557 171.429 386.649 186.584 395.301 197.583 C 393.777 199.519 392.468 201.614 391.394 203.831 L 415.787 216.504 L 389.776 207.774 C 386.067 218.743 388.144 230.843 395.301 239.946 C 378.996 260.673 391.245 291.278 417.349 295.034 C 443.451 298.789 463.831 272.879 454.032 248.395 C 452.817 245.361 451.175 242.515 449.153 239.946 C 458.929 227.516 458.929 210.012 449.153 197.583 Z" fill-rule="evenodd" style="fill: rgb(14, 89, 169);"/>       <path d="M 387.969 218.764 C 387.957 226.449 390.54 233.912 395.301 239.946 C 378.996 260.673 391.245 291.278 417.349 295.034 C 443.451 298.789 463.831 272.879 454.032 248.395 C 452.817 245.361 451.175 242.515 449.153 239.946 C 453.745 234.116 387.969 214.919 387.969 218.764 Z" opacity="0.1" style=""/>     </g>     <g transform="matrix(1.24292, 0, 0, 1.24292, 199.653815, 304.792856)">       <circle cx="-11.29" cy="-99.45" r="40.456" style="stroke-width: 1; fill: rgb(255, 255, 255); paint-order: fill; stroke: rgb(36, 37, 38);"/>       <path style="stroke-width: 1.091; fill: rgb(36, 37, 38);" d="M -19.735 -135.64 L -39.441 -71.302 L -22.55 -71.302 L -14.104 -93.829 L -8.474 -93.829 L -0.029 -71.302 L 16.862 -71.302 L -2.844 -135.64 L -19.735 -135.64 Z"/>       <path d="M -11.747 -130.73 C -29.559 -108.94 -8.995 -117.29 -12.258 -94.538 C 1.799 -113.31 -3.295 -118.48 -11.747 -130.73" style="stroke-width: 1.091; fill: rgb(255, 255, 255);"/>     </g>   </g> </svg>