<svg xmlns="http://www.w3.org/2000/svg" viewBox="33.73 7.08 385.69 243.88">   <g transform="matrix(1, 0, 0, 1, -2.883229, 0)">     <path id="Path_83" data-name="Path 83" d="M 377.569 168.183 C 375.701 184.188 371.82 197.039 366.491 207.287 C 359.401 220.943 347.274 226.444 336.441 232.201 C 333.31 233.862 330.056 235.277 326.706 236.434 C 306.993 243.276 284.929 241.461 267.597 237.849 C 255.441 235.313 243.102 233.753 230.698 233.183 C 227.16 233.024 223.618 232.945 220.073 232.946 C 214.607 232.953 116.181 234.821 92.217 186.305 C 86.3 174.337 82.245 159.717 80.788 141.897 C 76.665 91.516 99.325 58.427 128.553 36.799 C 183.844 -4.113 259.632 -2.398 314.107 39.593 C 350.394 67.562 384.369 109.893 377.569 168.183 Z" fill="#3f3d56" style="stroke-width: 1;"/>     <path id="Path_84" data-name="Path 84" d="M 366.491 207.287 C 359.401 220.943 349.756 229.989 338.922 235.746 C 335.792 237.407 332.537 238.822 329.188 239.979 C 309.474 246.821 287.41 245.006 270.079 241.394 C 257.923 238.858 245.584 237.298 233.179 236.728 C 229.641 236.569 226.1 236.49 222.555 236.491 C 217.089 236.498 211.623 236.701 206.159 237.101 C 170.649 239.71 116.181 234.821 92.217 186.305 L 152.177 70.171 L 174.492 127.465 L 181.614 145.753 L 201.243 118.819 L 211.378 104.912 L 257.533 157.828 L 270.579 129.018 L 360.897 202.725 L 365.935 206.833 L 366.491 207.287 Z" fill="#f2f2f2" style="stroke-width: 1;"/>     <path id="Path_85" data-name="Path 85" d="M 143.669 107.394 L 152.886 87.187 L 165.648 116.611 L 154.658 95.341 L 143.669 107.394 Z" opacity="0.1" style="stroke-width: 1;"/>     <path id="Path_86" data-name="Path 86" d="M 233.179 236.728 C 229.641 236.569 226.1 236.49 222.555 236.491 L 181.614 145.754 L 233.179 236.728 Z" opacity="0.1" style="stroke-width: 1;"/>     <path id="Path_87" data-name="Path 87" d="M 201.243 118.819 L 211.378 110.939 L 257.462 164.113 L 210.669 118.738 L 201.243 118.819 Z" opacity="0.1" style="stroke-width: 1;"/>     <path id="Path_88" data-name="Path 88" d="M 338.922 235.746 C 335.792 237.407 332.537 238.822 329.188 239.979 L 257.533 157.828 L 338.922 235.746 Z" opacity="0.1" style="stroke-width: 1;"/>     <circle id="Ellipse_11" data-name="Ellipse 11" cx="283.403" cy="120.597" r="1.063" fill="#f2f2f2" style="stroke-width: 1;"/>     <circle id="Ellipse_12" data-name="Ellipse 12" cx="178.055" cy="79.743" r="1.063" fill="#f2f2f2" style="stroke-width: 1;"/>     <circle id="Ellipse_13" data-name="Ellipse 13" cx="325.943" cy="163.491" r="0.709" fill="#f2f2f2" style="stroke-width: 1;"/>     <circle id="Ellipse_14" data-name="Ellipse 14" cx="101.129" cy="102.076" r="0.709" fill="#f2f2f2" style="stroke-width: 1;"/>     <circle id="Ellipse_15" data-name="Ellipse 15" cx="330.197" cy="119.533" r="0.709" fill="#f2f2f2" style="stroke-width: 1;"/>     <circle id="Ellipse_16" data-name="Ellipse 16" cx="374.154" cy="153.565" r="0.709" fill="#f2f2f2" style="stroke-width: 1;"/>     <circle id="Ellipse_17" data-name="Ellipse 17" cx="417.403" cy="207.448" r="0.709" fill="#f2f2f2" style="stroke-width: 1;"/>     <path id="Path_89" data-name="Path 89" d="M 145.087 50.057 L 144.108 50.057 L 144.108 49.079 L 143.584 49.079 L 143.584 50.057 L 142.605 50.057 L 142.605 50.581 L 143.584 50.581 L 143.584 51.559 L 144.108 51.559 L 144.108 50.581 L 145.087 50.581 L 145.087 50.057 Z" fill="#f2f2f2" style="stroke-width: 1;"/>     <path id="Path_90" data-name="Path 90" d="M 337.224 157.47 L 336.246 157.47 L 336.246 156.492 L 335.721 156.492 L 335.721 157.47 L 334.743 157.47 L 334.743 157.994 L 335.721 157.994 L 335.721 158.972 L 336.246 158.972 L 336.246 157.994 L 337.224 157.994 L 337.224 157.47 Z" fill="#f2f2f2" style="stroke-width: 1;"/>     <path id="Path_91" data-name="Path 91" d="M 422.303 224.732 C 422.303 230.606 335.963 250.965 229.457 250.965 C 122.951 250.965 36.611 230.606 36.611 224.732 C 36.611 218.859 122.951 229.695 229.457 229.695 C 335.963 229.695 422.303 218.859 422.303 224.732 Z" fill="#3f3d56" style="stroke-width: 1;"/>     <path id="Path_92" data-name="Path 92" d="M 422.303 224.732 C 422.303 230.606 335.963 250.965 229.457 250.965 C 122.951 250.965 36.611 230.606 36.611 224.732 C 36.611 218.859 122.951 229.695 229.457 229.695 C 335.963 229.695 422.303 218.859 422.303 224.732 Z" opacity="0.1" style="stroke-width: 1;"/>     <ellipse id="Ellipse_18" data-name="Ellipse 18" cx="229.457" cy="224.732" rx="192.846" ry="10.635" fill="#3f3d56" style="stroke-width: 1;"/>     <path id="Path_93" data-name="Path 93" d="M 237.965 209.843 C 237.965 221.59 232.727 218.351 226.267 218.351 C 219.806 218.351 214.568 221.59 214.568 209.843 C 214.568 198.096 226.267 175.812 226.267 175.812 C 226.267 175.812 237.965 198.096 237.965 209.843 Z" fill="#ff6584" style="stroke-width: 1;"/>     <path id="Path_94" data-name="Path 94" d="M 231.584 214.338 C 231.584 219.677 229.203 218.205 226.267 218.205 C 223.33 218.205 220.949 219.677 220.949 214.338 C 220.949 208.999 226.267 198.869 226.267 198.869 C 226.267 198.869 231.584 208.999 231.584 214.338 Z" opacity="0.1" style="stroke-width: 1;"/>     <rect id="Rectangle_97" data-name="Rectangle 97" width="32.614" height="6.381" rx="9" fill="#2f2e41" x="209.96" y="221.542" style="stroke-width: 1;"/>     <rect id="Rectangle_98" data-name="Rectangle 98" width="32.614" height="6.381" rx="9" fill="#2f2e41" x="209.96" y="215.161" style="stroke-width: 1;"/>     <path id="Path_95" data-name="Path 95" d="M 85.177 180.975 C 85.177 200.594 97.484 216.47 112.695 216.47" fill="#3f3d56" style="stroke-width: 1;"/>     <path id="Path_96" data-name="Path 96" d="M 112.695 216.47 C 112.695 196.63 126.43 180.576 143.404 180.576" fill="#6c63ff" style="stroke-width: 1;"/>     <path id="Path_97" data-name="Path 97" d="M 95.147 182.754 C 95.147 201.39 102.995 216.47 112.695 216.47" fill="#6c63ff" style="stroke-width: 1;"/>     <path id="Path_98" data-name="Path 98" d="M 112.695 216.47 C 112.695 191.119 128.57 170.606 148.189 170.606" fill="#3f3d56" style="stroke-width: 1;"/>     <path id="Path_99" data-name="Path 99" d="M 106.907 216.72 C 106.907 216.72 110.81 216.6 111.986 215.763 C 113.162 214.926 117.989 213.925 118.281 215.268 C 118.572 216.611 124.145 221.948 119.739 221.984 C 115.333 222.02 109.502 221.298 108.328 220.583 C 107.154 219.868 106.907 216.72 106.907 216.72 Z" fill="#a8a8a8" style="stroke-width: 1;"/>     <path id="Path_100" data-name="Path 100" d="M 119.817 221.516 C 115.411 221.552 109.579 220.83 108.405 220.115 C 107.511 219.57 107.155 217.616 107.036 216.715 L 106.906 216.72 C 106.906 216.72 107.154 219.867 108.327 220.584 C 109.5 221.3 115.332 222.021 119.738 221.985 C 121.01 221.975 121.449 221.523 121.425 220.851 C 121.249 221.256 120.763 221.508 119.817 221.516 Z" opacity="0.2" style="stroke-width: 1;"/>     <path id="Path_101" data-name="Path 101" d="M 292.355 193.926 C 292.355 207.408 300.812 218.316 311.264 218.316" fill="#3f3d56" style="stroke-width: 1;"/>     <path id="Path_102" data-name="Path 102" d="M 311.264 218.316 C 311.264 204.684 320.702 193.652 332.365 193.652" fill="#6c63ff" style="stroke-width: 1;"/>     <path id="Path_103" data-name="Path 103" d="M 299.206 195.148 C 299.206 207.954 304.599 218.316 311.264 218.316" fill="#6c63ff" style="stroke-width: 1;"/>     <path id="Path_104" data-name="Path 104" d="M 311.264 218.316 C 311.264 200.897 322.173 186.801 335.653 186.801" fill="#3f3d56" style="stroke-width: 1;"/>     <path id="Path_105" data-name="Path 105" d="M 307.286 218.488 C 307.286 218.488 309.968 218.406 310.776 217.83 C 311.584 217.255 314.901 216.567 315.101 217.491 C 315.301 218.414 319.131 222.081 316.103 222.105 C 313.076 222.13 309.069 221.634 308.262 221.143 C 307.456 220.651 307.286 218.488 307.286 218.488 Z" fill="#a8a8a8" style="stroke-width: 1;"/>     <path id="Path_106" data-name="Path 106" d="M 316.158 221.784 C 313.13 221.808 309.123 221.312 308.317 220.821 C 307.702 220.447 307.458 219.104 307.376 218.485 L 307.286 218.488 C 307.286 218.488 307.456 220.651 308.263 221.143 C 309.07 221.634 313.077 222.13 316.104 222.105 C 316.978 222.098 317.28 221.786 317.263 221.325 C 317.142 221.605 316.808 221.779 316.158 221.784 Z" opacity="0.2" style="stroke-width: 1;"/>     <path id="Path_107" data-name="Path 107" d="M 353.465 226.411 C 353.465 226.411 357.492 225.799 358.605 224.784 C 359.718 223.769 364.592 222.129 365.063 223.484 C 365.533 224.839 371.973 229.669 367.414 230.257 C 362.855 230.846 356.725 230.828 355.42 230.234 C 354.115 229.641 353.465 226.411 353.465 226.411 Z" fill="#a8a8a8" style="stroke-width: 1;"/>     <path id="Path_108" data-name="Path 108" d="M 367.437 229.763 C 362.878 230.351 356.748 230.334 355.443 229.74 C 354.45 229.288 353.835 227.309 353.599 226.39 L 353.465 226.412 C 353.465 226.412 354.115 229.641 355.42 230.234 C 356.726 230.828 362.856 230.846 367.415 230.257 C 368.731 230.088 369.129 229.564 369.02 228.873 C 368.887 229.314 368.417 229.637 367.437 229.763 Z" opacity="0.2" style="stroke-width: 1;"/>     <path id="Path_109" data-name="Path 109" d="M 254.364 226.121 C 254.364 226.121 257.763 225.604 258.702 224.748 C 259.641 223.891 263.755 222.507 264.152 223.651 C 264.549 224.794 269.984 228.871 266.137 229.367 C 262.29 229.863 257.116 229.848 256.015 229.347 C 254.913 228.847 254.364 226.121 254.364 226.121 Z" fill="#a8a8a8" style="stroke-width: 1;"/>     <path id="Path_110" data-name="Path 110" d="M 266.156 228.949 C 262.309 229.445 257.135 229.43 256.033 228.929 C 255.194 228.548 254.677 226.877 254.477 226.102 L 254.364 226.12 C 254.364 226.12 254.912 228.845 256.014 229.346 C 257.116 229.847 262.288 229.862 266.136 229.365 C 267.247 229.223 267.583 228.78 267.491 228.195 C 267.38 228.57 266.983 228.842 266.156 228.949 Z" opacity="0.2" style="stroke-width: 1;"/>     <path id="Path_111" data-name="Path 111" d="M 79.997 224.423 C 79.997 224.423 82.643 224.02 83.374 223.354 C 84.106 222.687 87.309 221.61 87.617 222.5 C 87.925 223.39 92.158 226.564 89.162 226.95 C 86.167 227.336 82.139 227.325 81.282 226.935 C 80.424 226.545 79.997 224.423 79.997 224.423 Z" fill="#a8a8a8" style="stroke-width: 1;"/>     <path id="Path_112" data-name="Path 112" d="M 89.177 226.625 C 86.182 227.012 82.154 227 81.297 226.61 C 80.644 226.313 80.241 225.013 80.085 224.409 L 79.997 224.423 C 79.997 224.423 80.423 226.544 81.282 226.935 C 82.141 227.325 86.167 227.336 89.162 226.95 C 90.027 226.838 90.289 226.494 90.217 226.04 C 90.13 226.33 89.821 226.542 89.177 226.625 Z" opacity="0.2" style="stroke-width: 1;"/>     <path id="Path_113" data-name="Path 113" d="M 172.631 220.25 C 172.631 230.963 157.698 227.649 139.415 227.649 C 121.131 227.649 106.42 230.963 106.42 220.25 C 106.42 209.537 121.351 207.207 139.635 207.207 C 157.918 207.207 172.631 209.537 172.631 220.25 Z" opacity="0.1" style="stroke-width: 1;"/>     <path id="Path_114" data-name="Path 114" d="M 172.631 217.614 C 172.631 228.326 157.698 225.013 139.415 225.013 C 121.131 225.013 106.42 228.326 106.42 217.614 C 106.42 206.901 121.35 204.568 139.633 204.568 C 157.917 204.568 172.631 206.899 172.631 217.614 Z" fill="#3f3d56" style="stroke-width: 1;"/>     <path id="Path_47" data-name="Path 47" d="M 150.346 177.086 C 149.811 177.086 149.378 176.652 149.378 176.117 C 149.303 173.881 146.836 172.563 144.936 173.746 C 144.113 174.258 143.599 175.148 143.567 176.117 C 143.567 176.863 142.76 177.329 142.114 176.956 C 141.815 176.783 141.63 176.463 141.63 176.117 C 141.63 172.39 145.665 170.06 148.893 171.924 C 150.392 172.789 151.314 174.387 151.314 176.117 C 151.314 176.652 150.881 177.086 150.346 177.086" fill-rule="evenodd" style="stroke-width: 1;"/>     <g id="SvgjsG2781" featurekey="odWo6G-0" transform="matrix(0.67838, 0, 0, 0.67838, 300.75892, 98.074603)" fill="#111111" style="">       <g transform="matrix(1, 0, 0, 1, 0.571293, 0)">         <path xmlns="http://www.w3.org/2000/svg" d="M 50 93.166 C 26.198 93.166 6.834 73.802 6.834 50 C 6.834 26.198 26.198 6.834 50 6.834 C 73.802 6.834 93.166 26.198 93.166 50 C 93.166 73.802 73.802 93.166 50 93.166 Z M 50 8.834 C 27.301 8.834 8.834 27.301 8.834 50 C 8.834 72.699 27.301 91.166 50 91.166 C 72.699 91.166 91.166 72.699 91.166 50 C 91.166 27.301 72.699 8.834 50 8.834 Z" style="paint-order: stroke markers; fill: rgb(14, 89, 169); fill-rule: evenodd;"/>         <path xmlns="http://www.w3.org/2000/svg" d="M 42.054 45.22 L 41.947 44.478 C 60.145 41.855 70.192 31.453 73.667 27.103 L 74.253 27.571 C 70.722 31.99 60.517 42.559 42.054 45.22 Z" style="fill-opacity: 0.68; paint-order: stroke markers; fill: rgb(14, 89, 169); fill-rule: evenodd;"/>         <circle xmlns="http://www.w3.org/2000/svg" cx="44.793" cy="46.114" r="2.82" style="fill-opacity: 0.68; paint-order: stroke markers; fill: rgb(14, 89, 169); fill-rule: evenodd;"/>         <path xmlns="http://www.w3.org/2000/svg" d="M 36.344 79.667 C 32.86 75.28 27.332 66.128 29.449 54.115 L 30.187 54.246 C 28.121 65.969 33.525 74.912 36.93 79.2 L 36.344 79.667 Z" style="fill-opacity: 0.68; paint-order: stroke markers; fill: rgb(14, 89, 169); fill-rule: evenodd;"/>         <path xmlns="http://www.w3.org/2000/svg" d="M 78.553 58.284 L 77.803 58.263 C 78.065 48.888 74.481 39.915 67.71 32.998 C 60.66 25.794 50.819 21.706 40.684 21.765 L 40.679 21.015 C 51 20.975 61.055 25.125 68.246 32.473 C 75.16 39.537 78.82 48.704 78.553 58.284 Z" style="fill-opacity: 0.68; paint-order: stroke markers; fill: rgb(14, 89, 169); fill-rule: evenodd;"/>         <path xmlns="http://www.w3.org/2000/svg" d="M 55.399 79.251 C 32.777 78.135 17.44 63.323 10.629 49.833 C 5.622 39.915 4.839 30.251 8.586 24.611 C 11.004 20.971 15.161 19.25 20.595 19.628 L 20.543 20.376 C 15.379 20.015 11.47 21.625 9.21 25.026 C 5.612 30.442 6.412 39.817 11.298 49.495 C 18.013 62.797 33.135 77.401 55.436 78.501 L 55.399 79.251 Z" style="fill-opacity: 0.68; paint-order: stroke markers; fill: rgb(14, 89, 169); fill-rule: evenodd;"/>         <path xmlns="http://www.w3.org/2000/svg" d="M 23.574 83.267 C 13.12 81.553 6.04 74.011 5.536 64.052 C 5.052 54.472 10.949 43.083 25.215 39.234 L 25.41 39.958 C 11.548 43.698 5.816 54.734 6.286 64.014 C 6.672 71.648 11.448 80.519 23.696 82.527 L 23.574 83.267 Z" style="fill-opacity: 0.68; paint-order: stroke markers; fill: rgb(14, 89, 169); fill-rule: evenodd;"/>         <circle xmlns="http://www.w3.org/2000/svg" cx="25.179" cy="39.64" r="2.82" style="fill-opacity: 0.68; paint-order: stroke markers; fill: rgb(14, 89, 169); fill-rule: evenodd;"/>         <path xmlns="http://www.w3.org/2000/svg" d="M 71.286 94.365 C 70.961 94.365 70.632 94.35 70.298 94.319 C 63.962 93.73 58.223 87.877 54.944 78.661 L 55.651 78.409 C 58.829 87.343 64.33 93.011 70.367 93.572 C 73.617 93.881 76.494 92.571 77.888 90.175 C 79.331 87.696 78.914 84.489 76.743 81.379 L 77.358 80.949 C 79.703 84.309 80.131 87.809 78.536 90.552 C 77.138 92.954 74.416 94.365 71.286 94.365 Z" style="fill-opacity: 0.68; paint-order: stroke markers; fill: rgb(14, 89, 169); fill-rule: evenodd;"/>         <path xmlns="http://www.w3.org/2000/svg" d="M 73.706 12.936 C 73.101 12.936 72.487 12.951 71.865 12.982 C 60.053 13.562 49.351 19.328 43.238 28.409 L 44.555 28.657 C 50.481 19.854 60.737 14.27 71.993 13.717 C 78.052 13.413 83.416 14.703 86.017 17.064 C 88.705 19.507 87.93 22.666 83.881 25.73 L 85.026 26.154 C 89.399 22.843 90.198 19.395 87.224 16.693 C 84.619 14.326 79.543 12.936 73.706 12.936 Z" style="fill-opacity: 0.68; paint-order: stroke markers; fill: rgb(14, 89, 169); fill-rule: evenodd;" transform="matrix(0.999784, -0.020769, 0.020769, 0.999784, -0.417661, 1.377655)"/>       </g>       <circle xmlns="http://www.w3.org/2000/svg" cx="76.514" cy="28.767" r="0" style="fill-opacity: 0.68; paint-order: stroke markers; fill: rgb(14, 89, 169);"/>       <circle xmlns="http://www.w3.org/2000/svg" cx="27.345" cy="55.653" r="0" style="fill-opacity: 0.68; paint-order: stroke markers; fill: rgb(14, 89, 169);"/>       <circle xmlns="http://www.w3.org/2000/svg" cx="34.08" cy="80.649" r="0" style="fill-opacity: 0.68; paint-order: stroke markers; fill: rgb(14, 89, 169);"/>       <circle xmlns="http://www.w3.org/2000/svg" cx="78.128" cy="58.131" r="0" style="fill-opacity: 0.68; paint-order: stroke markers; fill: rgb(14, 89, 169);"/>       <circle xmlns="http://www.w3.org/2000/svg" cx="40.819" cy="21.442" r="0" style="fill-opacity: 0.68; paint-order: stroke markers; fill: rgb(14, 89, 169);"/>       <circle xmlns="http://www.w3.org/2000/svg" cx="55.277" cy="78.637" r="0" style="fill-opacity: 0.68; paint-order: stroke markers; fill: rgb(14, 89, 169);"/>       <circle xmlns="http://www.w3.org/2000/svg" cx="62.771" cy="18.677" r="0" style="fill-opacity: 0.68; paint-order: stroke markers; fill: rgb(14, 89, 169);"/>     </g>     <g id="SvgjsG2927" featurekey="nameFeature-0" transform="matrix(1.278784, 0, 0, 1.278784, 315.438669, 96.542323)" fill="#6789ba" style="">       <path d="M 16.171 40.16 L 13.331 22.28 L 12.451 34.04 L 8.731 33.92 L 4.971 23.84 L 5.331 39.92 L 0.571 39.56 L 1.811 17.4 L 6.131 16.16 L 9.411 24.2 L 11.211 16.04 L 16.731 15.48 L 20.371 39 L 16.171 40.16 Z M 29.086 39.92 C 26.326 39.68 21.686 36.52 21.686 36.52 L 23.286 32.08 C 23.286 32.08 27.006 35.4 29.166 35.2 C 31.326 35 32.526 33.16 32.086 30.96 C 31.166 26.28 23.566 26 23.566 21.64 C 23.566 17.28 26.646 14.4 29.086 14.28 C 32.966 14.08 35.006 16.04 35.006 16.04 C 34.806 16.32 33.686 18.68 33.686 18.68 C 33.686 18.68 29.606 17.2 28.926 20.68 C 28.006 25.32 37.166 24.88 37.326 31.12 C 37.526 38.2 31.806 40.16 29.086 39.92 L 29.086 39.92 Z" style="fill: rgb(14, 89, 169);"/>     </g>     <g transform="matrix(1.147439, 0, 0, 1.185734, 95.855372, 91.029956)" style="">       <circle cx="74.346" cy="64.667" r="31.371" style="stroke: rgb(14, 89, 169); fill: rgb(14, 89, 169); stroke-width: 1;"/>       <polygon points="67.798 36.606 52.518 86.497 65.615 86.497 72.164 69.035 76.53 69.035 83.078 86.497 96.176 86.497 80.896 36.606" style="stroke-width: 1.091; fill: rgb(255, 255, 255);"/>       <path d="M 73.992 40.421 C 60.18 57.325 76.126 50.844 73.595 68.477 C 84.496 53.935 80.546 49.921 73.992 40.421 Z" style="stroke-width: 1.091;" fill="#0e59a9"/>     </g>   </g> </svg>