<?xml version="1.0" encoding="utf-8"?>
<svg viewBox="36.415 217.007 425.007 86.167" width="425.007" height="86.167" xmlns="http://www.w3.org/2000/svg">
  <g id="g-10" featurekey="textGroupContainer" transform="matrix(1, 0, 0, 1, 355.234386, 232.135841)" fill="#ffffff">
    <rect xmlns="http://www.w3.org/2000/svg" y="0" height="1" width="1" opacity="0" style=""/>
    <rect xmlns="http://www.w3.org/2000/svg" y="0" x="-235" width="3" height="62" style=""/>
  </g>
  <g id="g-11" featurekey="odWo6G-0" transform="matrix(0.780012, 0, 0, 0.780012, 31.672271, 223.974341)" fill="#111111" style="">
    <g transform="matrix(1, 0, 0, 1, 0.571293, 0)">
      <path xmlns="http://www.w3.org/2000/svg" d="M 50 93.166 C 26.198 93.166 6.834 73.802 6.834 50 C 6.834 26.198 26.198 6.834 50 6.834 C 73.802 6.834 93.166 26.198 93.166 50 C 93.166 73.802 73.802 93.166 50 93.166 Z M 50 8.834 C 27.301 8.834 8.834 27.301 8.834 50 C 8.834 72.699 27.301 91.166 50 91.166 C 72.699 91.166 91.166 72.699 91.166 50 C 91.166 27.301 72.699 8.834 50 8.834 Z" style="paint-order: stroke markers; fill-rule: evenodd; fill: rgb(255, 255, 255);"/>
      <path xmlns="http://www.w3.org/2000/svg" d="M 42.054 45.22 L 41.947 44.478 C 60.145 41.855 70.192 31.453 73.667 27.103 L 74.253 27.571 C 70.722 31.99 60.517 42.559 42.054 45.22 Z" style="fill-opacity: 0.68; paint-order: stroke markers; fill-rule: evenodd; fill: rgb(255, 255, 255);"/>
      <circle xmlns="http://www.w3.org/2000/svg" cx="44.793" cy="46.114" r="2.82" style="fill-opacity: 0.68; paint-order: stroke markers; fill-rule: evenodd; fill: rgb(255, 255, 255);"/>
      <path xmlns="http://www.w3.org/2000/svg" d="M 36.344 79.667 C 32.86 75.28 27.332 66.128 29.449 54.115 L 30.187 54.246 C 28.121 65.969 33.525 74.912 36.93 79.2 L 36.344 79.667 Z" style="fill-opacity: 0.68; paint-order: stroke markers; fill-rule: evenodd; fill: rgb(255, 255, 255);"/>
      <path xmlns="http://www.w3.org/2000/svg" d="M 78.553 58.284 L 77.803 58.263 C 78.065 48.888 74.481 39.915 67.71 32.998 C 60.66 25.794 50.819 21.706 40.684 21.765 L 40.679 21.015 C 51 20.975 61.055 25.125 68.246 32.473 C 75.16 39.537 78.82 48.704 78.553 58.284 Z" style="fill-opacity: 0.68; paint-order: stroke markers; fill-rule: evenodd; fill: rgb(255, 255, 255);"/>
      <path xmlns="http://www.w3.org/2000/svg" d="M 55.399 79.251 C 32.777 78.135 17.44 63.323 10.629 49.833 C 5.622 39.915 4.839 30.251 8.586 24.611 C 11.004 20.971 15.161 19.25 20.595 19.628 L 20.543 20.376 C 15.379 20.015 11.47 21.625 9.21 25.026 C 5.612 30.442 6.412 39.817 11.298 49.495 C 18.013 62.797 33.135 77.401 55.436 78.501 L 55.399 79.251 Z" style="fill-opacity: 0.68; paint-order: stroke markers; fill-rule: evenodd; fill: rgb(255, 255, 255);"/>
      <path xmlns="http://www.w3.org/2000/svg" d="M 23.574 83.267 C 13.12 81.553 6.04 74.011 5.536 64.052 C 5.052 54.472 10.949 43.083 25.215 39.234 L 25.41 39.958 C 11.548 43.698 5.816 54.734 6.286 64.014 C 6.672 71.648 11.448 80.519 23.696 82.527 L 23.574 83.267 Z" style="fill-opacity: 0.68; paint-order: stroke markers; fill-rule: evenodd; fill: rgb(255, 255, 255);"/>
      <circle xmlns="http://www.w3.org/2000/svg" cx="25.179" cy="39.64" r="2.82" style="fill-opacity: 0.68; paint-order: stroke markers; fill-rule: evenodd; fill: rgb(255, 255, 255);"/>
      <path xmlns="http://www.w3.org/2000/svg" d="M 71.286 94.365 C 70.961 94.365 70.632 94.35 70.298 94.319 C 63.962 93.73 58.223 87.877 54.944 78.661 L 55.651 78.409 C 58.829 87.343 64.33 93.011 70.367 93.572 C 73.617 93.881 76.494 92.571 77.888 90.175 C 79.331 87.696 78.914 84.489 76.743 81.379 L 77.358 80.949 C 79.703 84.309 80.131 87.809 78.536 90.552 C 77.138 92.954 74.416 94.365 71.286 94.365 Z" style="fill-opacity: 0.68; paint-order: stroke markers; fill-rule: evenodd; fill: rgb(255, 255, 255);"/>
      <path xmlns="http://www.w3.org/2000/svg" d="M 73.706 12.936 C 73.101 12.936 72.487 12.951 71.865 12.982 C 60.053 13.562 49.351 19.328 43.238 28.409 L 44.555 28.657 C 50.481 19.854 60.737 14.27 71.993 13.717 C 78.052 13.413 83.416 14.703 86.017 17.064 C 88.705 19.507 87.93 22.666 83.881 25.73 L 85.026 26.154 C 89.399 22.843 90.198 19.395 87.224 16.693 C 84.619 14.326 79.543 12.936 73.706 12.936 Z" style="fill-opacity: 0.68; paint-order: stroke markers; fill-rule: evenodd; fill: rgb(255, 255, 255);" transform="matrix(0.999784, -0.020769, 0.020769, 0.999784, -0.417661, 1.377655)"/>
    </g>
    <circle xmlns="http://www.w3.org/2000/svg" cx="76.514" cy="28.767" r="0" style="fill-opacity: 0.68; paint-order: stroke markers; fill: rgb(255, 255, 255);"/>
    <circle xmlns="http://www.w3.org/2000/svg" cx="27.345" cy="55.653" r="0" style="fill-opacity: 0.68; paint-order: stroke markers; fill: rgb(255, 255, 255);"/>
    <circle xmlns="http://www.w3.org/2000/svg" cx="34.08" cy="80.649" r="0" style="fill-opacity: 0.68; paint-order: stroke markers; fill: rgb(255, 255, 255);"/>
    <circle xmlns="http://www.w3.org/2000/svg" cx="78.128" cy="58.131" r="0" style="fill-opacity: 0.68; paint-order: stroke markers; fill: rgb(255, 255, 255);"/>
    <circle xmlns="http://www.w3.org/2000/svg" cx="40.819" cy="21.442" r="0" style="fill-opacity: 0.68; paint-order: stroke markers; fill: rgb(255, 255, 255);"/>
    <circle xmlns="http://www.w3.org/2000/svg" cx="55.277" cy="78.637" r="0" style="fill-opacity: 0.68; paint-order: stroke markers; fill: rgb(255, 255, 255);"/>
    <circle xmlns="http://www.w3.org/2000/svg" cx="62.771" cy="18.677" r="0" style="fill-opacity: 0.68; paint-order: stroke markers; fill: rgb(255, 255, 255);"/>
  </g>
  <g id="g-12" featurekey="nameFeature-0" transform="matrix(1.470365, 0, 0, 1.470365, 44.131074, 222.765052)" fill="#6789ba" style="">
    <path d="M 16.171 40.16 L 13.331 22.28 L 12.451 34.04 L 8.731 33.92 L 4.971 23.84 L 5.331 39.92 L 0.571 39.56 L 1.811 17.4 L 6.131 16.16 L 9.411 24.2 L 11.211 16.04 L 16.731 15.48 L 20.371 39 L 16.171 40.16 Z M 29.086 39.92 C 26.326 39.68 21.686 36.52 21.686 36.52 L 23.286 32.08 C 23.286 32.08 27.006 35.4 29.166 35.2 C 31.326 35 32.526 33.16 32.086 30.96 C 31.166 26.28 23.566 26 23.566 21.64 C 23.566 17.28 26.646 14.4 29.086 14.28 C 32.966 14.08 35.006 16.04 35.006 16.04 C 34.806 16.32 33.686 18.68 33.686 18.68 C 33.686 18.68 29.606 17.2 28.926 20.68 C 28.006 25.32 37.166 24.88 37.326 31.12 C 37.526 38.2 31.806 40.16 29.086 39.92 L 29.086 39.92 Z" style="fill: rgb(255, 255, 255);"/>
  </g>
  <path d="M 177.986 286.934 L 166.211 286.934 L 159.134 275.223 Q 158.34 273.89 157.61 272.842 Q 156.88 271.795 156.134 271.049 Q 155.389 270.303 154.579 269.906 Q 153.77 269.51 152.818 269.51 L 150.057 269.51 L 150.057 286.934 L 139.805 286.934 L 139.805 241.421 L 156.055 241.421 Q 172.622 241.421 172.622 253.799 Q 172.622 256.18 171.892 258.195 Q 171.163 260.21 169.829 261.829 Q 168.496 263.448 166.608 264.622 Q 164.72 265.796 162.403 266.463 L 162.403 266.59 Q 163.418 266.907 164.371 267.621 Q 165.323 268.335 166.211 269.288 Q 167.1 270.24 167.909 271.335 Q 168.719 272.43 169.385 273.477 Z M 150.057 249.102 L 150.057 261.766 L 154.5 261.766 Q 157.801 261.766 159.8 259.861 Q 161.831 257.925 161.831 255.069 Q 161.831 249.102 154.69 249.102 Z M 209.528 286.934 L 182.233 286.934 L 182.233 241.421 L 208.48 241.421 L 208.48 249.768 L 192.484 249.768 L 192.484 259.893 L 207.37 259.893 L 207.37 268.208 L 192.484 268.208 L 192.484 278.619 L 209.528 278.619 Z M 214.732 285.188 L 214.732 275.032 Q 217.494 277.349 220.731 278.507 Q 223.968 279.666 227.269 279.666 Q 229.205 279.666 230.649 279.317 Q 232.093 278.968 233.061 278.349 Q 234.029 277.73 234.505 276.889 Q 234.981 276.048 234.981 275.064 Q 234.981 273.731 234.22 272.684 Q 233.458 271.636 232.141 270.747 Q 230.824 269.859 229.015 269.034 Q 227.206 268.208 225.111 267.351 Q 219.779 265.13 217.16 261.924 Q 214.542 258.719 214.542 254.18 Q 214.542 250.625 215.97 248.07 Q 217.398 245.516 219.858 243.865 Q 222.318 242.215 225.555 241.437 Q 228.793 240.66 232.411 240.66 Q 235.965 240.66 238.711 241.088 Q 241.456 241.517 243.773 242.405 L 243.773 251.895 Q 242.63 251.101 241.282 250.498 Q 239.933 249.895 238.504 249.499 Q 237.076 249.102 235.664 248.912 Q 234.251 248.721 232.982 248.721 Q 231.236 248.721 229.808 249.054 Q 228.38 249.388 227.396 249.991 Q 226.412 250.594 225.873 251.435 Q 225.333 252.276 225.333 253.323 Q 225.333 254.466 225.936 255.37 Q 226.539 256.275 227.65 257.084 Q 228.761 257.893 230.348 258.671 Q 231.935 259.449 233.934 260.274 Q 236.664 261.416 238.838 262.702 Q 241.012 263.987 242.567 265.606 Q 244.122 267.225 244.947 269.303 Q 245.772 271.382 245.772 274.143 Q 245.772 277.952 244.328 280.539 Q 242.884 283.125 240.409 284.728 Q 237.933 286.331 234.648 287.029 Q 231.363 287.727 227.713 287.727 Q 223.968 287.727 220.588 287.093 Q 217.208 286.458 214.732 285.188 Z M 280.55 286.934 L 253.255 286.934 L 253.255 241.421 L 279.502 241.421 L 279.502 249.768 L 263.506 249.768 L 263.506 259.893 L 278.392 259.893 L 278.392 268.208 L 263.506 268.208 L 263.506 278.619 L 280.55 278.619 Z M 328.788 286.934 L 317.616 286.934 L 314.379 276.809 L 298.192 276.809 L 294.987 286.934 L 283.878 286.934 L 300.446 241.421 L 312.601 241.421 Z M 312.03 268.938 L 307.142 253.641 Q 306.603 251.927 306.381 249.546 L 306.127 249.546 Q 305.968 251.546 305.333 253.514 L 300.382 268.938 Z M 372.646 286.934 L 360.871 286.934 L 353.793 275.223 Q 353 273.89 352.27 272.842 Q 351.54 271.795 350.794 271.049 Q 350.048 270.303 349.239 269.906 Q 348.429 269.51 347.477 269.51 L 344.716 269.51 L 344.716 286.934 L 334.465 286.934 L 334.465 241.421 L 350.715 241.421 Q 367.282 241.421 367.282 253.799 Q 367.282 256.18 366.552 258.195 Q 365.822 260.21 364.489 261.829 Q 363.156 263.448 361.268 264.622 Q 359.379 265.796 357.062 266.463 L 357.062 266.59 Q 358.078 266.907 359.03 267.621 Q 359.982 268.335 360.871 269.288 Q 361.759 270.24 362.569 271.335 Q 363.378 272.43 364.045 273.477 Z M 344.716 249.102 L 344.716 261.766 L 349.159 261.766 Q 352.46 261.766 354.46 259.861 Q 356.491 257.925 356.491 255.069 Q 356.491 249.102 349.35 249.102 Z M 408.884 285.315 Q 403.901 287.727 395.871 287.727 Q 385.398 287.727 379.399 281.57 Q 373.4 275.413 373.4 265.162 Q 373.4 254.244 380.145 247.452 Q 386.889 240.66 397.648 240.66 Q 404.314 240.66 408.884 242.342 L 408.884 252.212 Q 404.314 249.483 398.474 249.483 Q 392.063 249.483 388.127 253.514 Q 384.191 257.544 384.191 264.432 Q 384.191 271.033 387.905 274.953 Q 391.618 278.872 397.902 278.872 Q 403.901 278.872 408.884 275.953 Z M 456.207 286.934 L 445.924 286.934 L 445.924 268.399 L 427.072 268.399 L 427.072 286.934 L 416.82 286.934 L 416.82 241.421 L 427.072 241.421 L 427.072 259.576 L 445.924 259.576 L 445.924 241.421 L 456.207 241.421 Z" style="fill: rgb(255, 255, 255); white-space: pre;"/>
</svg>