<?xml version="1.0" encoding="utf-8"?>
<svg viewBox="36.186 130.238 425.007 86.167" width="425.007" height="86.167" xmlns="http://www.w3.org/2000/svg">
  <g id="g-7" featurekey="textGroupContainer" transform="matrix(1, 0, 0, 1, 355.00529, 145.366902)" fill="#ffffff">
    <rect xmlns="http://www.w3.org/2000/svg" y="0" height="1" width="1" opacity="0" style="fill: rgb(14, 89, 169);"/>
    <rect xmlns="http://www.w3.org/2000/svg" y="0" x="-235" width="3" height="62" style="fill: rgb(14, 89, 169);"/>
  </g>
  <g id="g-8" featurekey="odWo6G-0" transform="matrix(0.780012, 0, 0, 0.780012, 31.443208, 137.205403)" fill="#111111" style="">
    <g transform="matrix(1, 0, 0, 1, 0.571293, 0)">
      <path xmlns="http://www.w3.org/2000/svg" d="M 50 93.166 C 26.198 93.166 6.834 73.802 6.834 50 C 6.834 26.198 26.198 6.834 50 6.834 C 73.802 6.834 93.166 26.198 93.166 50 C 93.166 73.802 73.802 93.166 50 93.166 Z M 50 8.834 C 27.301 8.834 8.834 27.301 8.834 50 C 8.834 72.699 27.301 91.166 50 91.166 C 72.699 91.166 91.166 72.699 91.166 50 C 91.166 27.301 72.699 8.834 50 8.834 Z" style="paint-order: stroke markers; fill: rgb(14, 89, 169); fill-rule: evenodd;"/>
      <path xmlns="http://www.w3.org/2000/svg" d="M 42.054 45.22 L 41.947 44.478 C 60.145 41.855 70.192 31.453 73.667 27.103 L 74.253 27.571 C 70.722 31.99 60.517 42.559 42.054 45.22 Z" style="fill-opacity: 0.68; paint-order: stroke markers; fill: rgb(14, 89, 169); fill-rule: evenodd;"/>
      <circle xmlns="http://www.w3.org/2000/svg" cx="44.793" cy="46.114" r="2.82" style="fill-opacity: 0.68; paint-order: stroke markers; fill: rgb(14, 89, 169); fill-rule: evenodd;"/>
      <path xmlns="http://www.w3.org/2000/svg" d="M 36.344 79.667 C 32.86 75.28 27.332 66.128 29.449 54.115 L 30.187 54.246 C 28.121 65.969 33.525 74.912 36.93 79.2 L 36.344 79.667 Z" style="fill-opacity: 0.68; paint-order: stroke markers; fill: rgb(14, 89, 169); fill-rule: evenodd;"/>
      <path xmlns="http://www.w3.org/2000/svg" d="M 78.553 58.284 L 77.803 58.263 C 78.065 48.888 74.481 39.915 67.71 32.998 C 60.66 25.794 50.819 21.706 40.684 21.765 L 40.679 21.015 C 51 20.975 61.055 25.125 68.246 32.473 C 75.16 39.537 78.82 48.704 78.553 58.284 Z" style="fill-opacity: 0.68; paint-order: stroke markers; fill: rgb(14, 89, 169); fill-rule: evenodd;"/>
      <path xmlns="http://www.w3.org/2000/svg" d="M 55.399 79.251 C 32.777 78.135 17.44 63.323 10.629 49.833 C 5.622 39.915 4.839 30.251 8.586 24.611 C 11.004 20.971 15.161 19.25 20.595 19.628 L 20.543 20.376 C 15.379 20.015 11.47 21.625 9.21 25.026 C 5.612 30.442 6.412 39.817 11.298 49.495 C 18.013 62.797 33.135 77.401 55.436 78.501 L 55.399 79.251 Z" style="fill-opacity: 0.68; paint-order: stroke markers; fill: rgb(14, 89, 169); fill-rule: evenodd;"/>
      <path xmlns="http://www.w3.org/2000/svg" d="M 23.574 83.267 C 13.12 81.553 6.04 74.011 5.536 64.052 C 5.052 54.472 10.949 43.083 25.215 39.234 L 25.41 39.958 C 11.548 43.698 5.816 54.734 6.286 64.014 C 6.672 71.648 11.448 80.519 23.696 82.527 L 23.574 83.267 Z" style="fill-opacity: 0.68; paint-order: stroke markers; fill: rgb(14, 89, 169); fill-rule: evenodd;"/>
      <circle xmlns="http://www.w3.org/2000/svg" cx="25.179" cy="39.64" r="2.82" style="fill-opacity: 0.68; paint-order: stroke markers; fill: rgb(14, 89, 169); fill-rule: evenodd;"/>
      <path xmlns="http://www.w3.org/2000/svg" d="M 71.286 94.365 C 70.961 94.365 70.632 94.35 70.298 94.319 C 63.962 93.73 58.223 87.877 54.944 78.661 L 55.651 78.409 C 58.829 87.343 64.33 93.011 70.367 93.572 C 73.617 93.881 76.494 92.571 77.888 90.175 C 79.331 87.696 78.914 84.489 76.743 81.379 L 77.358 80.949 C 79.703 84.309 80.131 87.809 78.536 90.552 C 77.138 92.954 74.416 94.365 71.286 94.365 Z" style="fill-opacity: 0.68; paint-order: stroke markers; fill: rgb(14, 89, 169); fill-rule: evenodd;"/>
      <path xmlns="http://www.w3.org/2000/svg" d="M 73.706 12.936 C 73.101 12.936 72.487 12.951 71.865 12.982 C 60.053 13.562 49.351 19.328 43.238 28.409 L 44.555 28.657 C 50.481 19.854 60.737 14.27 71.993 13.717 C 78.052 13.413 83.416 14.703 86.017 17.064 C 88.705 19.507 87.93 22.666 83.881 25.73 L 85.026 26.154 C 89.399 22.843 90.198 19.395 87.224 16.693 C 84.619 14.326 79.543 12.936 73.706 12.936 Z" style="fill-opacity: 0.68; paint-order: stroke markers; fill: rgb(14, 89, 169); fill-rule: evenodd;" transform="matrix(0.999784, -0.020769, 0.020769, 0.999784, -0.417661, 1.377655)"/>
    </g>
    <circle xmlns="http://www.w3.org/2000/svg" cx="76.514" cy="28.767" r="0" style="fill-opacity: 0.68; paint-order: stroke markers; fill: rgb(14, 89, 169);"/>
    <circle xmlns="http://www.w3.org/2000/svg" cx="27.345" cy="55.653" r="0" style="fill-opacity: 0.68; paint-order: stroke markers; fill: rgb(14, 89, 169);"/>
    <circle xmlns="http://www.w3.org/2000/svg" cx="34.08" cy="80.649" r="0" style="fill-opacity: 0.68; paint-order: stroke markers; fill: rgb(14, 89, 169);"/>
    <circle xmlns="http://www.w3.org/2000/svg" cx="78.128" cy="58.131" r="0" style="fill-opacity: 0.68; paint-order: stroke markers; fill: rgb(14, 89, 169);"/>
    <circle xmlns="http://www.w3.org/2000/svg" cx="40.819" cy="21.442" r="0" style="fill-opacity: 0.68; paint-order: stroke markers; fill: rgb(14, 89, 169);"/>
    <circle xmlns="http://www.w3.org/2000/svg" cx="55.277" cy="78.637" r="0" style="fill-opacity: 0.68; paint-order: stroke markers; fill: rgb(14, 89, 169);"/>
    <circle xmlns="http://www.w3.org/2000/svg" cx="62.771" cy="18.677" r="0" style="fill-opacity: 0.68; paint-order: stroke markers; fill: rgb(14, 89, 169);"/>
  </g>
  <g id="g-9" featurekey="nameFeature-0" transform="matrix(1.470365, 0, 0, 1.470365, 43.901994, 135.996113)" fill="#6789ba" style="">
    <path d="M 16.171 40.16 L 13.331 22.28 L 12.451 34.04 L 8.731 33.92 L 4.971 23.84 L 5.331 39.92 L 0.571 39.56 L 1.811 17.4 L 6.131 16.16 L 9.411 24.2 L 11.211 16.04 L 16.731 15.48 L 20.371 39 L 16.171 40.16 Z M 29.086 39.92 C 26.326 39.68 21.686 36.52 21.686 36.52 L 23.286 32.08 C 23.286 32.08 27.006 35.4 29.166 35.2 C 31.326 35 32.526 33.16 32.086 30.96 C 31.166 26.28 23.566 26 23.566 21.64 C 23.566 17.28 26.646 14.4 29.086 14.28 C 32.966 14.08 35.006 16.04 35.006 16.04 C 34.806 16.32 33.686 18.68 33.686 18.68 C 33.686 18.68 29.606 17.2 28.926 20.68 C 28.006 25.32 37.166 24.88 37.326 31.12 C 37.526 38.2 31.806 40.16 29.086 39.92 L 29.086 39.92 Z" style="fill: rgb(14, 89, 169);"/>
  </g>
  <path d="M 177.757 200.165 L 165.982 200.165 L 158.905 188.454 Q 158.111 187.121 157.381 186.073 Q 156.651 185.026 155.905 184.28 Q 155.16 183.534 154.35 183.137 Q 153.541 182.741 152.589 182.741 L 149.828 182.741 L 149.828 200.165 L 139.576 200.165 L 139.576 154.652 L 155.826 154.652 Q 172.393 154.652 172.393 167.03 Q 172.393 169.411 171.663 171.426 Q 170.934 173.441 169.6 175.06 Q 168.267 176.679 166.379 177.853 Q 164.491 179.027 162.174 179.694 L 162.174 179.821 Q 163.189 180.138 164.142 180.852 Q 165.094 181.566 165.982 182.519 Q 166.871 183.471 167.68 184.566 Q 168.49 185.661 169.156 186.708 Z M 149.828 162.333 L 149.828 174.997 L 154.271 174.997 Q 157.572 174.997 159.571 173.092 Q 161.602 171.156 161.602 168.3 Q 161.602 162.333 154.461 162.333 Z M 209.299 200.165 L 182.004 200.165 L 182.004 154.652 L 208.251 154.652 L 208.251 162.999 L 192.255 162.999 L 192.255 173.124 L 207.141 173.124 L 207.141 181.439 L 192.255 181.439 L 192.255 191.85 L 209.299 191.85 Z M 214.503 198.419 L 214.503 188.263 Q 217.265 190.58 220.502 191.738 Q 223.739 192.897 227.04 192.897 Q 228.976 192.897 230.42 192.548 Q 231.864 192.199 232.832 191.58 Q 233.8 190.961 234.276 190.12 Q 234.752 189.279 234.752 188.295 Q 234.752 186.962 233.991 185.915 Q 233.229 184.867 231.912 183.978 Q 230.595 183.09 228.786 182.265 Q 226.977 181.439 224.882 180.582 Q 219.55 178.361 216.931 175.155 Q 214.313 171.95 214.313 167.411 Q 214.313 163.856 215.741 161.301 Q 217.169 158.747 219.629 157.096 Q 222.089 155.446 225.326 154.668 Q 228.564 153.891 232.182 153.891 Q 235.736 153.891 238.482 154.319 Q 241.227 154.748 243.544 155.636 L 243.544 165.126 Q 242.401 164.332 241.053 163.729 Q 239.704 163.126 238.275 162.73 Q 236.847 162.333 235.435 162.143 Q 234.023 161.952 232.753 161.952 Q 231.007 161.952 229.579 162.285 Q 228.151 162.619 227.167 163.222 Q 226.183 163.825 225.644 164.666 Q 225.104 165.507 225.104 166.554 Q 225.104 167.697 225.707 168.601 Q 226.31 169.506 227.421 170.315 Q 228.532 171.124 230.119 171.902 Q 231.706 172.68 233.705 173.505 Q 236.435 174.647 238.609 175.933 Q 240.783 177.218 242.338 178.837 Q 243.893 180.456 244.718 182.534 Q 245.544 184.613 245.544 187.374 Q 245.544 191.183 244.099 193.77 Q 242.655 196.356 240.18 197.959 Q 237.704 199.562 234.419 200.26 Q 231.134 200.958 227.484 200.958 Q 223.739 200.958 220.359 200.324 Q 216.979 199.689 214.503 198.419 Z M 280.321 200.165 L 253.026 200.165 L 253.026 154.652 L 279.273 154.652 L 279.273 162.999 L 263.277 162.999 L 263.277 173.124 L 278.163 173.124 L 278.163 181.439 L 263.277 181.439 L 263.277 191.85 L 280.321 191.85 Z M 328.559 200.165 L 317.387 200.165 L 314.15 190.04 L 297.963 190.04 L 294.758 200.165 L 283.649 200.165 L 300.217 154.652 L 312.372 154.652 Z M 311.801 182.169 L 306.913 166.872 Q 306.374 165.158 306.152 162.777 L 305.898 162.777 Q 305.739 164.777 305.104 166.745 L 300.153 182.169 Z M 372.417 200.165 L 360.642 200.165 L 353.564 188.454 Q 352.771 187.121 352.041 186.073 Q 351.311 185.026 350.565 184.28 Q 349.819 183.534 349.01 183.137 Q 348.2 182.741 347.248 182.741 L 344.487 182.741 L 344.487 200.165 L 334.236 200.165 L 334.236 154.652 L 350.486 154.652 Q 367.053 154.652 367.053 167.03 Q 367.053 169.411 366.323 171.426 Q 365.593 173.441 364.26 175.06 Q 362.927 176.679 361.039 177.853 Q 359.15 179.027 356.833 179.694 L 356.833 179.821 Q 357.849 180.138 358.801 180.852 Q 359.753 181.566 360.642 182.519 Q 361.53 183.471 362.34 184.566 Q 363.149 185.661 363.816 186.708 Z M 344.487 162.333 L 344.487 174.997 L 348.93 174.997 Q 352.231 174.997 354.231 173.092 Q 356.262 171.156 356.262 168.3 Q 356.262 162.333 349.121 162.333 Z M 408.655 198.546 Q 403.672 200.958 395.642 200.958 Q 385.169 200.958 379.17 194.801 Q 373.171 188.644 373.171 178.393 Q 373.171 167.475 379.916 160.683 Q 386.66 153.891 397.42 153.891 Q 404.085 153.891 408.655 155.573 L 408.655 165.443 Q 404.085 162.714 398.245 162.714 Q 391.834 162.714 387.898 166.745 Q 383.962 170.775 383.962 177.663 Q 383.962 184.264 387.676 188.184 Q 391.389 192.103 397.673 192.103 Q 403.672 192.103 408.655 189.184 Z M 455.978 200.165 L 445.695 200.165 L 445.695 181.63 L 426.843 181.63 L 426.843 200.165 L 416.591 200.165 L 416.591 154.652 L 426.843 154.652 L 426.843 172.807 L 445.695 172.807 L 445.695 154.652 L 455.978 154.652 Z" style="fill: rgb(14, 89, 169); white-space: pre;"/>
</svg>